<?xml version="1.0" encoding="utf-8"?>
<!-- Generator: Adobe Illustrator 17.0.0, SVG Export Plug-In . SVG Version: 6.00 Build 0)  -->
<!DOCTYPE svg PUBLIC "-//W3C//DTD SVG 1.1//EN" "http://www.w3.org/Graphics/SVG/1.1/DTD/svg11.dtd">
<svg version="1.1" id="Layer_1" xmlns="http://www.w3.org/2000/svg" xmlns:xlink="http://www.w3.org/1999/xlink" x="0px" y="0px"
	 width="27.429px" height="27.445px" viewBox="0 0 27.429 27.445" enable-background="new 0 0 27.429 27.445" xml:space="preserve">
<g>
	<path fill="#FFFFFF" d="M8.941,22.482L7.85,20.834L20.404,8.278l1.371,1.37L8.941,22.482z M2.298,25.145l1.727-5.139l2.051,1.363
		l1.35,2.037L2.298,25.145z M17.78,5.654l1.37,1.37L6.592,19.584l-1.647-1.096L17.78,5.654z M27.169,5.508L21.921,0.26
		C21.747,0.086,21.521,0,21.294,0c-0.227,0-0.454,0.086-0.627,0.26L2.937,17.988c-0.045,0.043-0.086,0.094-0.123,0.149
		c-0.047,0.072-0.084,0.148-0.107,0.226l-2.661,7.914c-0.106,0.318-0.024,0.672,0.214,0.91c0.17,0.168,0.396,0.258,0.627,0.258
		c0.096,0,0.191-0.016,0.284-0.047l7.895-2.678c0.078-0.023,0.154-0.06,0.226-0.107c0.056-0.037,0.107-0.078,0.151-0.125
		L27.169,6.762c0.165-0.165,0.26-0.394,0.26-0.627C27.429,5.901,27.334,5.673,27.169,5.508"/>
</g>
</svg>
