<?xml version="1.0" encoding="utf-8"?>
<!-- Generator: Adobe Illustrator 17.0.0, SVG Export Plug-In . SVG Version: 6.00 Build 0)  -->
<!DOCTYPE svg PUBLIC "-//W3C//DTD SVG 1.1//EN" "http://www.w3.org/Graphics/SVG/1.1/DTD/svg11.dtd">
<svg version="1.1" id="Layer_1" xmlns="http://www.w3.org/2000/svg" xmlns:xlink="http://www.w3.org/1999/xlink" x="0px" y="0px"
	 width="26.8px" height="26.8px" viewBox="0 0 26.8 26.8" enable-background="new 0 0 26.8 26.8" xml:space="preserve">
<g>
	<circle fill="none" stroke="#FFFFFF" stroke-width="1.3" cx="13.4" cy="13.4" r="12.75"/>
	<path fill="#FFFFFF" d="M18.861,9.421c0.641-0.393,1.063-0.93,1.272-1.612c-0.624,0.331-1.244,0.557-1.864,0.682
		c-0.557-0.599-1.263-0.904-2.108-0.904c-0.825,0-1.523,0.291-2.095,0.855c-0.566,0.569-0.851,1.258-0.851,2.065
		c0,0.244,0.031,0.463,0.092,0.649c-2.438-0.083-4.455-1.094-6.045-3.041C6.992,8.59,6.857,9.075,6.857,9.577
		c0,1.031,0.436,1.848,1.305,2.448c-0.496-0.042-0.934-0.167-1.305-0.372c0,0.736,0.217,1.351,0.65,1.892
		c0.435,0.536,0.992,0.876,1.676,1.023c-0.247,0.064-0.508,0.094-0.775,0.094c-0.248,0-0.424-0.019-0.526-0.064
		c0.182,0.6,0.526,1.086,1.023,1.459c0.495,0.373,1.065,0.57,1.705,0.588c-1.055,0.828-2.262,1.238-3.628,1.238
		c-0.334,0-0.571-0.004-0.715-0.031c1.345,0.875,2.843,1.307,4.499,1.307c1.695,0,3.193-0.428,4.497-1.287
		c1.303-0.856,2.265-1.91,2.884-3.148c0.621-1.241,0.928-2.532,0.928-3.879v-0.371c0.603-0.452,1.087-0.961,1.459-1.522
		C19.994,9.182,19.437,9.34,18.861,9.421"/>
</g>
</svg>
