<?xml version="1.0" encoding="utf-8"?>
<!-- Generator: Adobe Illustrator 17.0.0, SVG Export Plug-In . SVG Version: 6.00 Build 0)  -->
<!DOCTYPE svg PUBLIC "-//W3C//DTD SVG 1.1//EN" "http://www.w3.org/Graphics/SVG/1.1/DTD/svg11.dtd">
<svg version="1.1" id="Layer_1" xmlns="http://www.w3.org/2000/svg" xmlns:xlink="http://www.w3.org/1999/xlink" x="0px" y="0px"
	 width="26.8px" height="26.8px" viewBox="0 0 26.8 26.8" enable-background="new 0 0 26.8 26.8" xml:space="preserve">
<g>
	<circle fill="none" stroke="#FFFFFF" stroke-width="1.3" cx="13.4" cy="13.4" r="12.75"/>
	<path fill="#FFFFFF" d="M11.935,15.24v-3.985l3.831,1.999L11.935,15.24z M20.347,10.565c0,0-0.139-0.977-0.564-1.407
		c-0.539-0.565-1.144-0.568-1.42-0.601c-1.985-0.143-4.962-0.143-4.962-0.143h-0.006c0,0-2.976,0-4.961,0.143
		C8.159,8.59,7.554,8.593,7.015,9.158c-0.425,0.43-0.563,1.407-0.563,1.407S6.31,11.712,6.31,12.86v1.075
		c0,1.148,0.142,2.295,0.142,2.295s0.139,0.978,0.563,1.408c0.539,0.564,1.248,0.547,1.563,0.605
		c1.134,0.109,4.821,0.142,4.821,0.142s2.978-0.004,4.964-0.148c0.276-0.033,0.881-0.035,1.42-0.6
		c0.425-0.43,0.564-1.408,0.564-1.408s0.142-1.147,0.142-2.295V12.86C20.49,11.712,20.347,10.565,20.347,10.565"/>
</g>
</svg>
